{
  "accessors": [
    {
      "bufferView": 2,
      "componentType": 5126,
      "count": 1733,
      "max": [
        1.0515847206115723,
        6.557397842407227,
        1.0515847206115723
      ],
      "min": [
        -1.0515847206115723,
        -1.3951719999313354,
        -1.0515847206115723
      ],
      "type": "VEC3"
    },
    {
      "bufferView": 2,
      "byteOffset": 20796,
      "componentType": 5126,
      "count": 1733,
      "max": [
        1.0,
        1.0,
        1.0
      ],
      "min": [
        -1.0,
        -1.0,
        -1.0
      ],
      "type": "VEC3"
    },
    {
      "bufferView": 3,
      "componentType": 5126,
      "count": 1733,
      "max": [
        1.0,
        1.0,
        1.0,
        1.0
      ],
      "min": [
        -1.0,
        -0.8006434440612793,
        -1.0,
        1.0
      ],
      "type": "VEC4"
    },
    {
      "bufferView": 1,
      "componentType": 5126,
      "count": 1733,
      "max": [
        0.9989312887191772,
        0.9331619739532471
      ],
      "min": [
        0.0010687621543183923,
        0.001068711280822754
      ],
      "type": "VEC2"
    },
    {
      "bufferView": 1,
      "byteOffset": 13864,
      "componentType": 5126,
      "count": 1733,
      "max": [
        0.9989312887191772,
        0.9331619739532471
      ],
      "min": [
        0.0010687621543183923,
        0.001068711280822754
      ],
      "type": "VEC2"
    },
    {
      "bufferView": 0,
      "componentType": 5125,
      "count": 8214,
      "type": "SCALAR"
    },
    {
      "bufferView": 2,
      "byteOffset": 41592,
      "componentType": 5126,
      "count": 531,
      "max": [
        0.3918941020965576,
        6.573984622955322,
        0.39189413189888
      ],
      "min": [
        -0.39189407229423523,
        6.107021331787109,
        -0.3918941617012024
      ],
      "type": "VEC3"
    },
    {
      "bufferView": 2,
      "byteOffset": 47964,
      "componentType": 5126,
      "count": 531,
      "max": [
        0.9620324373245239,
        1.0,
        0.9620324373245239
      ],
      "min": [
        -0.9620324373245239,
        -1.0,
        -0.9620404839515686
      ],
      "type": "VEC3"
    },
    {
      "bufferView": 3,
      "byteOffset": 27728,
      "componentType": 5126,
      "count": 531,
      "max": [
        0.9999386668205261,
        0.9619103074073792,
        0.7252258062362671,
        1.0
      ],
      "min": [
        -0.9615063071250916,
        -0.9620423913002014,
        -0.9969156980514526,
        1.0
      ],
      "type": "VEC4"
    },
    {
      "bufferView": 1,
      "byteOffset": 27728,
      "componentType": 5126,
      "count": 531,
      "max": [
        0.9467833638191223,
        0.9984380602836609
      ],
      "min": [
        0.0015619734767824411,
        0.0015619734767824411
      ],
      "type": "VEC2"
    },
    {
      "bufferView": 0,
      "byteOffset": 32856,
      "componentType": 5125,
      "count": 1668,
      "type": "SCALAR"
    },
    {
      "bufferView": 2,
      "byteOffset": 54336,
      "componentType": 5126,
      "count": 246,
      "max": [
        0.3931626081466675,
        6.0363945960998535,
        0.39316263794898987
      ],
      "min": [
        -0.3931625783443451,
        5.921237945556641,
        -0.39316269755363464
      ],
      "type": "VEC3"
    },
    {
      "bufferView": 2,
      "byteOffset": 57288,
      "componentType": 5126,
      "count": 246,
      "max": [
        0.772625744342804,
        0.7411631941795349,
        0.772625744342804
      ],
      "min": [
        -0.772625744342804,
        -0.7786402702331543,
        -0.772625744342804
      ],
      "type": "VEC3"
    },
    {
      "bufferView": 3,
      "byteOffset": 36224,
      "componentType": 5126,
      "count": 246,
      "max": [
        1.0,
        0.745398223400116,
        0.2075030356645584,
        1.0
      ],
      "min": [
        -0.9929169416427612,
        -0.7442923188209534,
        -0.9378293752670288,
        -1.0
      ],
      "type": "VEC4"
    },
    {
      "bufferView": 1,
      "byteOffset": 31976,
      "componentType": 5126,
      "count": 246,
      "max": [
        0.9231218695640564,
        0.8590185642242432
      ],
      "min": [
        0.7853471636772156,
        0.7212435007095337
      ],
      "type": "VEC2"
    },
    {
      "bufferView": 0,
      "byteOffset": 39528,
      "componentType": 5125,
      "count": 960,
      "type": "SCALAR"
    },
    {
      "bufferView": 2,
      "byteOffset": 60240,
      "componentType": 5126,
      "count": 164,
      "max": [
        0.9855951070785522,
        2.5388455390930176,
        0.9855951070785522
      ],
      "min": [
        -0.985595166683197,
        1.147387146949768,
        -0.9855951070785522
      ],
      "type": "VEC3"
    },
    {
      "bufferView": 2,
      "byteOffset": 62208,
      "componentType": 5126,
      "count": 164,
      "max": [
        0.9999924898147583,
        0.05264587700366974,
        0.9999924898147583
      ],
      "min": [
        -0.9999924898147583,
        -0.018738962709903717,
        -0.9999924898147583
      ],
      "type": "VEC3"
    },
    {
      "bufferView": 1,
      "byteOffset": 33944,
      "componentType": 5126,
      "count": 164,
      "max": [
        0.9949464201927185,
        1.0026687383651733
      ],
      "min": [
        -0.020805150270462036,
        0.01745401881635189
      ],
      "type": "VEC2"
    },
    {
      "bufferView": 0,
      "byteOffset": 43368,
      "componentType": 5125,
      "count": 720,
      "type": "SCALAR"
    }
  ],
  "asset": {
    "extras": {
      "author": "SlagPerch 3D (https://sketchfab.com/slagperch3d)",
      "license": "CC-BY-4.0 (http://creativecommons.org/licenses/by/4.0/)",
      "source": "https://sketchfab.com/3d-models/plastic-water-bottle-1f1cd422af2044aaa97aa158c18c436d",
      "title": "Plastic water bottle"
    },
    "generator": "Sketchfab-13.37.1",
    "version": "2.0"
  },
  "bufferViews": [
    {
      "buffer": 0,
      "byteLength": 46248,
      "name": "floatBufferViews",
      "target": 34963
    },
    {
      "buffer": 0,
      "byteLength": 35256,
      "byteOffset": 46248,
      "byteStride": 8,
      "name": "floatBufferViews",
      "target": 34962
    },
    {
      "buffer": 0,
      "byteLength": 64176,
      "byteOffset": 81504,
      "byteStride": 12,
      "name": "floatBufferViews",
      "target": 34962
    },
    {
      "buffer": 0,
      "byteLength": 40160,
      "byteOffset": 145680,
      "byteStride": 16,
      "name": "floatBufferViews",
      "target": 34962
    }
  ],
  "buffers": [
    {
      "byteLength": 185840,
      "uri": "scene.bin"
    }
  ],
  "images": [
    {
      "uri": "textures/Plastic_-_regular_baseColor.png"
    },
    {
      "uri": "textures/Plastic_-_regular_normal.png"
    },
    {
      "uri": "textures/orange_plastic_normal.png"
    },
    {
      "uri": "textures/label_1_baseColor.jpeg"
    }
  ],
  "materials": [
    {
      "alphaMode": "BLEND",
      "doubleSided": true,
      "name": "Plastic_-_regular",
      "normalTexture": {
        "index": 1
      },
      "pbrMetallicRoughness": {
        "baseColorFactor": [
          0.363662,
          0.363662,
          0.363662,
          1.0
        ],
        "baseColorTexture": {
          "index": 0
        },
        "metallicFactor": 0.75,
        "roughnessFactor": 0.1
      }
    },
    {
      "doubleSided": true,
      "name": "orange_plastic",
      "normalTexture": {
        "index": 2
      },
      "pbrMetallicRoughness": {
        "baseColorFactor": [
          1.0,
          0.105974,
          0.00374578,
          1.0
        ],
        "metallicFactor": 0.0,
        "roughnessFactor": 0.4
      }
    },
    {
      "doubleSided": true,
      "name": "label_1",
      "pbrMetallicRoughness": {
        "baseColorTexture": {
          "index": 3
        },
        "metallicFactor": 0.0,
        "roughnessFactor": 0.5
      }
    }
  ],
  "meshes": [
    {
      "name": "Object_0",
      "primitives": [
        {
          "attributes": {
            "NORMAL": 1,
            "POSITION": 0,
            "TANGENT": 2,
            "TEXCOORD_0": 3,
            "TEXCOORD_1": 4
          },
          "indices": 5,
          "material": 0,
          "mode": 4
        }
      ]
    },
    {
      "name": "Object_1",
      "primitives": [
        {
          "attributes": {
            "NORMAL": 7,
            "POSITION": 6,
            "TANGENT": 8,
            "TEXCOORD_0": 9
          },
          "indices": 10,
          "material": 1,
          "mode": 4
        }
      ]
    },
    {
      "name": "Object_2",
      "primitives": [
        {
          "attributes": {
            "NORMAL": 12,
            "POSITION": 11,
            "TANGENT": 13,
            "TEXCOORD_0": 14
          },
          "indices": 15,
          "material": 1,
          "mode": 4
        }
      ]
    },
    {
      "name": "Object_3",
      "primitives": [
        {
          "attributes": {
            "NORMAL": 17,
            "POSITION": 16,
            "TEXCOORD_0": 18
          },
          "indices": 19,
          "material": 2,
          "mode": 4
        }
      ]
    }
  ],
  "nodes": [
    {
      "children": [
        1
      ],
      "matrix": [
        1.0,
        0.0,
        0.0,
        0.0,
        0.0,
        2.220446049250313e-16,
        -1.0,
        0.0,
        0.0,
        1.0,
        2.220446049250313e-16,
        0.0,
        0.0,
        0.0,
        0.0,
        1.0
      ],
      "name": "Sketchfab_model"
    },
    {
      "children": [
        2
      ],
      "name": "root"
    },
    {
      "children": [
        3
      ],
      "matrix": [
        1.0,
        0.0,
        0.0,
        0.0,
        0.0,
        2.220446049250313e-16,
        1.0,
        0.0,
        0.0,
        -1.0,
        2.220446049250313e-16,
        0.0,
        0.0,
        0.0,
        0.0,
        1.0
      ],
      "name": "GLTF_SceneRootNode"
    },
    {
      "children": [
        4,
        5,
        7,
        9
      ],
      "matrix": [
        0.528684675693512,
        0.0,
        0.0,
        0.0,
        0.0,
        0.528684675693512,
        0.0,
        0.0,
        0.0,
        0.0,
        0.528684675693512,
        0.0,
        0.0,
        0.9124053716659546,
        0.0,
        1.0
      ],
      "name": "bottle low_3"
    },
    {
      "mesh": 0,
      "name": "Object_4"
    },
    {
      "children": [
        6
      ],
      "name": "Cap 1 low_0"
    },
    {
      "mesh": 1,
      "name": "Object_6"
    },
    {
      "children": [
        8
      ],
      "matrix": [
        1.0,
        0.0,
        0.0,
        0.0,
        0.0,
        1.0,
        0.0,
        0.0,
        0.0,
        0.0,
        1.0,
        0.0,
        0.0,
        0.06307220458984375,
        0.0,
        1.0
      ],
      "name": "Cap 2_1"
    },
    {
      "mesh": 2,
      "name": "Object_8"
    },
    {
      "children": [
        10
      ],
      "matrix": [
        1.0,
        0.0,
        0.0,
        0.0,
        0.0,
        1.12288498878479,
        0.0,
        0.0,
        0.0,
        0.0,
        1.0,
        0.0,
        0.0,
        -0.09099161624908447,
        0.0,
        1.0
      ],
      "name": "label_2"
    },
    {
      "mesh": 3,
      "name": "Object_10"
    }
  ],
  "samplers": [
    {
      "magFilter": 9729,
      "minFilter": 9987,
      "wrapS": 10497,
      "wrapT": 10497
    }
  ],
  "scene": 0,
  "scenes": [
    {
      "name": "Sketchfab_Scene",
      "nodes": [
        0
      ]
    }
  ],
  "textures": [
    {
      "sampler": 0,
      "source": 0
    },
    {
      "sampler": 0,
      "source": 1
    },
    {
      "sampler": 0,
      "source": 2
    },
    {
      "sampler": 0,
      "source": 3
    }
  ]
}
